{
  "accessors": [
    {
      "bufferView": 2,
      "componentType": 5126,
      "count": 9180,
      "max": [
        0.5567966103553772,
        0.1699771285057068,
        1.9628363847732544
      ],
      "min": [
        -0.5567966103553772,
        -0.1931527704000473,
        0.001997985877096653
      ],
      "type": "VEC3"
    },
    {
      "bufferView": 2,
      "byteOffset": 110160,
      "componentType": 5126,
      "count": 9180,
      "max": [
        0.9986152648925781,
        0.9998465180397034,
        0.9999893307685852
      ],
      "min": [
        -0.9986153244972229,
        -0.999979555606842,
        -0.9999998211860657
      ],
      "type": "VEC3"
    },
    {
      "bufferView": 1,
      "componentType": 5126,
      "count": 9180,
      "max": [
        1.996772289276123,
        1.9961029291152954
      ],
      "min": [
        0.0031937360763549805,
        0.0031937360763549805
      ],
      "type": "VEC2"
    },
    {
      "bufferView": 0,
      "componentType": 5125,
      "count": 37206,
      "type": "SCALAR"
    },
    {
      "bufferView": 2,
      "byteOffset": 220320,
      "componentType": 5126,
      "count": 1691,
      "max": [
        0.24067389965057373,
        0.14252613484859467,
        1.2245545387268066
      ],
      "min": [
        -0.2406739741563797,
        -0.16403405368328094,
        0.5811682939529419
      ],
      "type": "VEC3"
    },
    {
      "bufferView": 2,
      "byteOffset": 240612,
      "componentType": 5126,
      "count": 1691,
      "max": [
        0.998465895652771,
        1.0,
        0.999995768070221
      ],
      "min": [
        -0.9984660148620605,
        -1.0,
        -0.9999862909317017
      ],
      "type": "VEC3"
    },
    {
      "bufferView": 1,
      "byteOffset": 73440,
      "componentType": 5126,
      "count": 1691,
      "max": [
        14.984258651733398,
        0.996806263923645
      ],
      "min": [
        0.003193771466612816,
        0.0031937360763549805
      ],
      "type": "VEC2"
    },
    {
      "bufferView": 0,
      "byteOffset": 148824,
      "componentType": 5125,
      "count": 6402,
      "type": "SCALAR"
    },
    {
      "bufferView": 2,
      "byteOffset": 260904,
      "componentType": 5126,
      "count": 7452,
      "max": [
        0.6367033123970032,
        0.10111692547798157,
        1.868143081665039
      ],
      "min": [
        -0.6367033123970032,
        -0.17582392692565918,
        0.9908575415611267
      ],
      "type": "VEC3"
    },
    {
      "bufferView": 2,
      "byteOffset": 350328,
      "componentType": 5126,
      "count": 7452,
      "max": [
        1.0,
        0.9999975562095642,
        1.0
      ],
      "min": [
        -1.0,
        -1.0,
        -1.0
      ],
      "type": "VEC3"
    },
    {
      "bufferView": 1,
      "byteOffset": 86968,
      "componentType": 5126,
      "count": 7452,
      "max": [
        1.9869604110717773,
        0.9973131418228149
      ],
      "min": [
        0.0026868581771850586,
        0.0026868581771850586
      ],
      "type": "VEC2"
    },
    {
      "bufferView": 0,
      "byteOffset": 174432,
      "componentType": 5125,
      "count": 34884,
      "type": "SCALAR"
    }
  ],
  "asset": {
    "extras": {
      "author": "SMF Features Developed From Cheryl Hill (https://sketchfab.com/cherylhill28)",
      "license": "CC-BY-4.0 (http://creativecommons.org/licenses/by/4.0/)",
      "source": "https://sketchfab.com/3d-models/nasb2-azula-6956ad1a7e9c43689d22b2da29888f0d",
      "title": "NASB2 - Azula"
    },
    "generator": "Sketchfab-16.64.0",
    "version": "2.0"
  },
  "bufferViews": [
    {
      "buffer": 0,
      "byteLength": 313968,
      "name": "floatBufferViews",
      "target": 34963
    },
    {
      "buffer": 0,
      "byteLength": 146584,
      "byteOffset": 313968,
      "byteStride": 8,
      "name": "floatBufferViews",
      "target": 34962
    },
    {
      "buffer": 0,
      "byteLength": 439752,
      "byteOffset": 460552,
      "byteStride": 12,
      "name": "floatBufferViews",
      "target": 34962
    }
  ],
  "buffers": [
    {
      "byteLength": 900304,
      "uri": "scene.bin"
    }
  ],
  "images": [
    {
      "uri": "textures/Azula_Costume_01_Mat_baseColor.png"
    },
    {
      "uri": "textures/Azula_Expressions_Mat_baseColor.png"
    }
  ],
  "materials": [
    {
      "doubleSided": true,
      "name": "Azula_Costume_01_Mat",
      "pbrMetallicRoughness": {
        "baseColorTexture": {
          "index": 0
        },
        "metallicFactor": 0.0,
        "roughnessFactor": 0.9247879381382721
      }
    },
    {
      "doubleSided": true,
      "name": "Azula_Expressions_Mat",
      "pbrMetallicRoughness": {
        "baseColorTexture": {
          "index": 1
        },
        "metallicFactor": 0.0,
        "roughnessFactor": 0.9247879381382721
      }
    }
  ],
  "meshes": [
    {
      "name": "Object_0",
      "primitives": [
        {
          "attributes": {
            "NORMAL": 1,
            "POSITION": 0,
            "TEXCOORD_0": 2
          },
          "indices": 3,
          "material": 0,
          "mode": 4
        }
      ]
    },
    {
      "name": "Object_1",
      "primitives": [
        {
          "attributes": {
            "NORMAL": 5,
            "POSITION": 4,
            "TEXCOORD_0": 6
          },
          "indices": 7,
          "material": 0,
          "mode": 4
        }
      ]
    },
    {
      "name": "Object_2",
      "primitives": [
        {
          "attributes": {
            "NORMAL": 9,
            "POSITION": 8,
            "TEXCOORD_0": 10
          },
          "indices": 11,
          "material": 1,
          "mode": 4
        }
      ]
    }
  ],
  "nodes": [
    {
      "children": [
        1
      ],
      "matrix": [
        1.0,
        0.0,
        0.0,
        0.0,
        0.0,
        2.220446049250313e-16,
        -1.0,
        0.0,
        0.0,
        1.0,
        2.220446049250313e-16,
        0.0,
        0.0,
        0.0,
        0.0,
        1.0
      ],
      "name": "Sketchfab_model"
    },
    {
      "children": [
        2,
        3,
        4
      ],
      "name": "Azula Costume00 Simple Prefab.obj.cleaner.materialmerger.gles"
    },
    {
      "mesh": 0,
      "name": "Object_2"
    },
    {
      "mesh": 1,
      "name": "Object_3"
    },
    {
      "mesh": 2,
      "name": "Object_4"
    }
  ],
  "samplers": [
    {
      "magFilter": 9729,
      "minFilter": 9987,
      "wrapS": 10497,
      "wrapT": 10497
    }
  ],
  "scene": 0,
  "scenes": [
    {
      "name": "Sketchfab_Scene",
      "nodes": [
        0
      ]
    }
  ],
  "textures": [
    {
      "sampler": 0,
      "source": 0
    },
    {
      "sampler": 0,
      "source": 1
    }
  ]
}
